<?xml version="1.0" standalone="no"?>
<!DOCTYPE svg PUBLIC "-//W3C//DTD SVG 20010904//EN"
 "http://www.w3.org/TR/2001/REC-SVG-20010904/DTD/svg10.dtd">
<svg version="1.0" xmlns="http://www.w3.org/2000/svg"
 width="480.000000pt" height="480.000000pt" viewBox="0 0 480.000000 480.000000"
 preserveAspectRatio="xMidYMid meet">
<g transform="translate(0.000000,480.000000) scale(0.100000,-0.100000)"
fill="#000000" stroke="none">
<path d="M2321 4009 c-41 -11 -103 -36 -138 -55 -67 -38 -170 -133 -203 -187
-18 -29 -25 -32 -99 -43 -258 -37 -451 -257 -451 -514 0 -141 51 -261 155
-365 75 -76 142 -115 240 -140 89 -23 1062 -22 1150 1 94 24 164 64 235 134
104 102 147 196 157 340 15 220 -123 440 -319 511 -29 10 -47 28 -78 75 -134
208 -404 309 -649 243z m230 -129 c133 -25 260 -119 321 -235 27 -52 38 -65
63 -69 89 -18 203 -104 246 -187 37 -74 51 -153 40 -225 -26 -169 -143 -293
-306 -323 -80 -15 -950 -15 -1030 0 -249 46 -383 315 -270 540 32 63 109 137
172 166 56 26 141 43 215 43 l47 0 32 60 c73 138 224 229 395 239 12 0 45 -4
75 -9z"/>
<path d="M3780 2555 l-275 -275 -1110 0 -1109 0 -273 272 -273 272 -55 -54
-55 -55 275 -275 275 -275 0 -568 c0 -554 0 -567 20 -587 20 -20 33 -20 738
-20 l717 0 -3 75 -4 75 -659 0 -659 0 0 495 0 495 1070 0 1070 0 0 -64 0 -64
75 1 75 1 0 81 0 80 275 275 275 275 -58 58 -57 57 -275 -275z"/>
<path d="M3487 1733 c-4 -3 -7 -36 -7 -73 l0 -66 -59 -13 c-33 -7 -85 -28
-116 -47 -31 -19 -59 -34 -63 -34 -4 0 -28 20 -52 45 -24 25 -49 45 -55 45
-16 0 -85 -73 -85 -90 0 -8 20 -35 45 -60 l46 -47 -30 -63 c-16 -34 -35 -84
-42 -111 l-13 -48 -70 -3 -71 -3 -3 -59 c-4 -71 1 -76 84 -76 l61 0 16 -59 c9
-33 32 -86 51 -118 l34 -58 -49 -52 c-42 -44 -48 -56 -40 -72 13 -24 69 -71
85 -71 6 0 33 22 60 49 l48 48 51 -27 c29 -16 78 -36 110 -46 l57 -18 0 -62
c0 -76 10 -86 82 -82 l53 3 3 71 3 72 47 12 c26 7 75 26 110 43 l62 31 48 -47
c26 -26 54 -47 63 -47 16 0 89 70 89 86 0 5 -22 31 -49 58 l-48 48 33 55 c30
50 64 142 64 172 0 7 23 11 59 11 89 0 91 2 91 76 l0 63 -72 3 -71 3 -17 61
c-9 33 -28 82 -43 108 l-27 49 50 53 c43 45 49 57 41 73 -13 24 -69 71 -84 71
-6 0 -32 -21 -58 -46 l-46 -45 -64 35 c-35 19 -89 41 -119 49 l-55 14 -3 72
-3 71 -63 0 c-34 0 -66 -3 -69 -7z m225 -311 c77 -37 128 -90 167 -172 22 -47
26 -68 26 -145 0 -82 -3 -97 -33 -157 -122 -249 -460 -273 -616 -45 -130 190
-47 450 171 538 37 15 68 18 133 17 74 -3 95 -8 152 -36z"/>
</g>
</svg>
